<?xml version="1.0" encoding="UTF-8"?>
<svg version="1.1" xmlns="http://www.w3.org/2000/svg" width="100" height="100">
<path d="M0 0 C3.68029929 2.36114041 6.85122947 4.97191405 10 8 C11.07894531 9.03640625 11.07894531 9.03640625 12.1796875 10.09375 C22.19109172 20.52072195 26.4315464 32.87652107 26.36352539 47.08422852 C26.05743122 60.45850319 20.29456993 71.68627818 11.125 81.3125 C0.03397504 91.70236821 -11.48027541 95.66566302 -26.5612793 95.54077148 C-40.70962911 95.0179471 -52.78650079 88.13817799 -62.41015625 77.92578125 C-71.22565823 67.24754421 -74.99955147 54.67431421 -74.37890625 40.92578125 C-73.1395361 28.08488431 -67.469673 16.46659318 -58.01171875 7.625 C-41.3753749 -5.8132894 -19.49757164 -10.18124146 0 0 Z M-55.96484375 20.3359375 C-63.31782353 29.96114327 -64.46184342 40.84802583 -63.39013672 52.59375 C-61.86402715 62.00635071 -55.84344154 71.16839878 -48.45703125 77.01171875 C-37.22029924 84.13218852 -26.4109917 87.18961333 -13.046875 84.37890625 C-1.72051657 80.73829104 7.33617883 73.45379565 13 63 C14.26645373 60.0449413 15.22088836 57.11644658 16 54 C16.226875 53.154375 16.45375 52.30875 16.6875 51.4375 C18.29676291 38.88524934 14.4735645 28.04278865 7.46875 17.75 C6.9840625 17.1725 6.499375 16.595 6 16 C5.34 16 4.68 16 4 16 C4 15.34 4 14.68 4 14 C-15.52011788 -1.66895343 -40.11165154 1.48860362 -55.96484375 20.3359375 Z " fill="#982727" transform="translate(74,5)"/>
<path d="M0 0 C6.02344204 4.3239296 7.98508125 9.20455672 9.66015625 16.1484375 C10.07141106 17.75265636 10.48286887 19.35682318 10.89453125 20.9609375 C11.18360352 22.11916016 11.18360352 22.11916016 11.47851562 23.30078125 C12.20249748 26.11033892 13.06244057 28.87409528 13.91015625 31.6484375 C15.04615212 35.90515764 15.43660583 39.16899817 14.03515625 43.4609375 C10.70532229 47.41511533 7.209232 48.08430711 2.31640625 48.7734375 C-1.04895491 48.31242912 -2.53084889 46.78712298 -4.96484375 44.4609375 C-6.11157227 41.59179687 -6.11157227 41.59179687 -6.84375 38.3046875 C-7.26624023 36.52384766 -7.26624023 36.52384766 -7.69726562 34.70703125 C-7.97119141 33.47082031 -8.24511719 32.23460937 -8.52734375 30.9609375 C-9.0780905 28.51005056 -9.64140488 26.06194545 -10.21875 23.6171875 C-10.45924072 22.53244141 -10.69973145 21.44769531 -10.94750977 20.33007812 C-12.10162077 17.07519151 -13.23941001 15.55968057 -15.96484375 13.4609375 C-21.45987021 12.84053129 -25.32905814 13.14966206 -29.96484375 16.4609375 C-31.96294144 20.90939832 -32.09169063 23.64134793 -30.8125 28.3046875 C-30.53083984 29.38621094 -30.24917969 30.46773437 -29.95898438 31.58203125 C-29.65154297 32.69707031 -29.34410156 33.81210937 -29.02734375 34.9609375 C-28.42407388 37.17676952 -27.83124616 39.39547667 -27.25 41.6171875 C-26.9806665 42.59494141 -26.71133301 43.57269531 -26.43383789 44.58007812 C-25.89887153 47.86618068 -26.11784815 50.24794252 -26.96484375 53.4609375 C-30.30902299 56.63362037 -32.67880719 58.3396133 -37.27734375 58.7734375 C-41.71708246 58.39718846 -42.88354085 57.62241145 -45.96484375 54.4609375 C-47.00257232 51.70187389 -47.74766585 49.25286005 -48.38671875 46.40625 C-48.57703674 45.62708221 -48.76735474 44.84791443 -48.96343994 44.0451355 C-49.56507087 41.5626238 -50.13997939 39.07476768 -50.71484375 36.5859375 C-51.11549708 34.92016543 -51.51782415 33.25479498 -51.921875 31.58984375 C-56.34050331 13.2170118 -56.34050331 13.2170118 -55.0390625 10.59765625 C-50.17346595 5.51276521 -50.17346595 5.51276521 -46.6875 5.36328125 C-45.80964844 5.37488281 -44.93179688 5.38648438 -44.02734375 5.3984375 C-43.15207031 5.40746094 -42.27679688 5.41648437 -41.375 5.42578125 C-40.57964844 5.43738281 -39.78429687 5.44898438 -38.96484375 5.4609375 C-35.72427771 5.76223883 -35.72427771 5.76223883 -32.90234375 3.1484375 C-23.42686678 -3.8293196 -10.63248014 -4.79383498 0 0 Z " fill="#911716" transform="translate(70.96484375,22.5390625)"/>
</svg>
